<svg id="mermaidSvgChart" width="100%" xmlns="http://www.w3.org/2000/svg" xmlns:xlink="http://www.w3.org/1999/xlink" height="500.125" style="max-width: 616.26953125px;" viewBox="-20 -20 616.26953125 500.125"><style>#mermaidSvgChart{font-family:"trebuchet ms",verdana,arial,sans-serif;font-size:16px;fill:#000000;}#mermaidSvgChart .error-icon{fill:#552222;}#mermaidSvgChart .error-text{fill:#552222;stroke:#552222;}#mermaidSvgChart .edge-thickness-normal{stroke-width:2px;}#mermaidSvgChart .edge-thickness-thick{stroke-width:3.5px;}#mermaidSvgChart .edge-pattern-solid{stroke-dasharray:0;}#mermaidSvgChart .edge-pattern-dashed{stroke-dasharray:3;}#mermaidSvgChart .edge-pattern-dotted{stroke-dasharray:2;}#mermaidSvgChart .marker{fill:#666;stroke:#666;}#mermaidSvgChart .marker.cross{stroke:#666;}#mermaidSvgChart svg{font-family:"trebuchet ms",verdana,arial,sans-serif;font-size:16px;}#mermaidSvgChart g.classGroup text{fill:#999;fill:#111111;stroke:none;font-family:"trebuchet ms",verdana,arial,sans-serif;font-size:10px;}#mermaidSvgChart g.classGroup text .title{font-weight:bolder;}#mermaidSvgChart .classTitle{font-weight:bolder;}#mermaidSvgChart .node rect,#mermaidSvgChart .node circle,#mermaidSvgChart .node ellipse,#mermaidSvgChart .node polygon,#mermaidSvgChart .node path{fill:#eee;stroke:#999;stroke-width:1px;}#mermaidSvgChart .divider{stroke:#999;stroke:1;}#mermaidSvgChart g.clickable{cursor:pointer;}#mermaidSvgChart g.classGroup rect{fill:#eee;stroke:#999;}#mermaidSvgChart g.classGroup line{stroke:#999;stroke-width:1;}#mermaidSvgChart .classLabel .box{stroke:none;stroke-width:0;fill:#eee;opacity:0.5;}#mermaidSvgChart .classLabel .label{fill:#999;font-size:10px;}#mermaidSvgChart .relation{stroke:#666;stroke-width:1;fill:none;}#mermaidSvgChart .dashed-line{stroke-dasharray:3;}#mermaidSvgChart #compositionStart,#mermaidSvgChart .composition{fill:#666 !important;stroke:#666 !important;stroke-width:1;}#mermaidSvgChart #compositionEnd,#mermaidSvgChart .composition{fill:#666 !important;stroke:#666 !important;stroke-width:1;}#mermaidSvgChart #dependencyStart,#mermaidSvgChart .dependency{fill:#666 !important;stroke:#666 !important;stroke-width:1;}#mermaidSvgChart #dependencyStart,#mermaidSvgChart .dependency{fill:#666 !important;stroke:#666 !important;stroke-width:1;}#mermaidSvgChart #extensionStart,#mermaidSvgChart .extension{fill:#666 !important;stroke:#666 !important;stroke-width:1;}#mermaidSvgChart #extensionEnd,#mermaidSvgChart .extension{fill:#666 !important;stroke:#666 !important;stroke-width:1;}#mermaidSvgChart #aggregationStart,#mermaidSvgChart .aggregation{fill:#eee !important;stroke:#666 !important;stroke-width:1;}#mermaidSvgChart #aggregationEnd,#mermaidSvgChart .aggregation{fill:#eee !important;stroke:#666 !important;stroke-width:1;}#mermaidSvgChart .edgeTerminals{font-size:11px;}#mermaidSvgChart:root{--mermaid-font-family:"trebuchet ms",verdana,arial,sans-serif;}#mermaidSvgChart class{fill:apa;}</style><g></g><defs><marker id="extensionStart" class="extension" refX="0" refY="7" markerWidth="190" markerHeight="240" orient="auto"><path d="M 1,7 L18,13 V 1 Z"></path></marker></defs><defs><marker id="extensionEnd" refX="19" refY="7" markerWidth="20" markerHeight="28" orient="auto"><path d="M 1,1 V 13 L18,7 Z"></path></marker></defs><defs><marker id="compositionStart" class="extension" refX="0" refY="7" markerWidth="190" markerHeight="240" orient="auto"><path d="M 18,7 L9,13 L1,7 L9,1 Z"></path></marker></defs><defs><marker id="compositionEnd" refX="19" refY="7" markerWidth="20" markerHeight="28" orient="auto"><path d="M 18,7 L9,13 L1,7 L9,1 Z"></path></marker></defs><defs><marker id="aggregationStart" class="extension" refX="0" refY="7" markerWidth="190" markerHeight="240" orient="auto"><path d="M 18,7 L9,13 L1,7 L9,1 Z"></path></marker></defs><defs><marker id="aggregationEnd" refX="19" refY="7" markerWidth="20" markerHeight="28" orient="auto"><path d="M 18,7 L9,13 L1,7 L9,1 Z"></path></marker></defs><defs><marker id="dependencyStart" class="extension" refX="0" refY="7" markerWidth="190" markerHeight="240" orient="auto"><path d="M 5,7 L9,13 L1,7 L9,1 Z"></path></marker></defs><defs><marker id="dependencyEnd" refX="19" refY="7" markerWidth="20" markerHeight="28" orient="auto"><path d="M 18,7 L9,13 L14,7 L9,1 Z"></path></marker></defs><g id="classid-Category-0" class="classGroup" transform="translate(195.32421875,280.09375 )"><rect x="0" y="0" width="62.1875" height="52.5625" class=" "></rect><text y="15" x="0"><tspan class="title" x="10.3671875">Category</tspan></text><line x1="0" y1="21.5625" y2="21.5625" x2="62.1875"></line><text x="5" y="31.5625" fill="white" class="classText"><tspan x="5">categoryId</tspan><tspan x="5" dy="10">name</tspan></text><line x1="0" y1="48.0625" y2="48.0625" x2="62.1875"></line><text x="5" y="63.0625" fill="white" class="classText"></text></g><g id="classid-Contact-1" class="classGroup" transform="translate(0,112.625 )"><rect x="0" y="0" width="57.28125" height="82.5" class=" "></rect><text y="15" x="0"><tspan class="title" x="10.609375">Contact</tspan></text><line x1="0" y1="21.5" y2="21.5" x2="57.28125"></line><text x="5" y="31.5" fill="white" class="classText"><tspan x="5">contactId</tspan><tspan x="5" dy="10">content</tspan><tspan x="5" dy="10">email</tspan><tspan x="5" dy="10">name</tspan><tspan x="5" dy="10">user_id</tspan></text><line x1="0" y1="78" y2="78" x2="57.28125"></line><text x="5" y="93" fill="white" class="classText"></text></g><g id="classid-Post-2" class="classGroup" transform="translate(196.765625,102.625 )"><rect x="0" y="0" width="68.703125" height="102.5" class=" "></rect><text y="15" x="0"><tspan class="title" x="24.4453125">Post</tspan></text><line x1="0" y1="21.5" y2="21.5" x2="68.703125"></line><text x="5" y="31.5" fill="white" class="classText"><tspan x="5">category_id</tspan><tspan x="5" dy="10">content</tspan><tspan x="5" dy="10">description</tspan><tspan x="5" dy="10">postId</tspan><tspan x="5" dy="10">title</tspan><tspan x="5" dy="10">updateTime</tspan><tspan x="5" dy="10">user_id</tspan></text><line x1="0" y1="98" y2="98" x2="68.703125"></line><text x="5" y="113" fill="white" class="classText"></text></g><g id="classid-PostTag-3" class="classGroup" transform="translate(202.60546875,0 )"><rect x="0" y="0" width="47.625" height="52.625" class=" "></rect><text y="15" x="0"><tspan class="title" x="5.6796875">PostTag</tspan></text><line x1="0" y1="21.5625" y2="21.5625" x2="47.625"></line><text x="5" y="31.5625" fill="white" class="classText"><tspan x="5">post_id</tspan><tspan x="5" dy="10">tag_id</tspan></text><line x1="0" y1="48.125" y2="48.125" x2="47.625"></line><text x="5" y="63.125" fill="white" class="classText"></text></g><g id="classid-Role-4" class="classGroup" transform="translate(436.47265625,280.125 )"><rect x="0" y="0" width="41.015625" height="52.5" class=" "></rect><text y="15" x="0"><tspan class="title" x="10.2734375">Role</tspan></text><line x1="0" y1="21.5" y2="21.5" x2="41.015625"></line><text x="5" y="31.5" fill="white" class="classText"><tspan x="5">name</tspan><tspan x="5" dy="10">roleId</tspan></text><line x1="0" y1="48" y2="48" x2="41.015625"></line><text x="5" y="63" fill="white" class="classText"></text></g><g id="classid-Social-5" class="classGroup" transform="translate(527.48828125,270.125 )"><rect x="0" y="0" width="48.78125" height="72.5" class=" "></rect><text y="15" x="0"><tspan class="title" x="10.8125">Social</tspan></text><line x1="0" y1="21.5" y2="21.5" x2="48.78125"></line><text x="5" y="31.5" fill="white" class="classText"><tspan x="5">image</tspan><tspan x="5" dy="10">link</tspan><tspan x="5" dy="10">name</tspan><tspan x="5" dy="10">socialId</tspan></text><line x1="0" y1="68" y2="68" x2="48.78125"></line><text x="5" y="83" fill="white" class="classText"></text></g><g id="classid-Status-6" class="classGroup" transform="translate(321.79296875,407.625 )"><rect x="0" y="0" width="50.109375" height="52.5" class=" "></rect><text y="15" x="0"><tspan class="title" x="10.7578125">Status</tspan></text><line x1="0" y1="21.5" y2="21.5" x2="50.109375"></line><text x="5" y="31.5" fill="white" class="classText"><tspan x="5">name</tspan><tspan x="5" dy="10">statusId</tspan></text><line x1="0" y1="48" y2="48" x2="50.109375"></line><text x="5" y="63" fill="white" class="classText"></text></g><g id="classid-Tag-7" class="classGroup" transform="translate(107.28125,127.5625 )"><rect x="0" y="0" width="39.484375" height="52.625" class=" "></rect><text y="15" x="0"><tspan class="title" x="11.5078125">Tag</tspan></text><line x1="0" y1="21.5625" y2="21.5625" x2="39.484375"></line><text x="5" y="31.5625" fill="white" class="classText"><tspan x="5">name</tspan><tspan x="5" dy="10">tagId</tspan></text><line x1="0" y1="48.125" y2="48.125" x2="39.484375"></line><text x="5" y="63.125" fill="white" class="classText"></text></g><g id="classid-UserRole-8" class="classGroup" transform="translate(376.11328125,127.625 )"><rect x="0" y="0" width="51.578125" height="52.5" class=" "></rect><text y="15" x="0"><tspan class="title" x="5">UserRole</tspan></text><line x1="0" y1="21.5" y2="21.5" x2="51.578125"></line><text x="5" y="31.5" fill="white" class="classText"><tspan x="5">role_id</tspan><tspan x="5" dy="10">user_id</tspan></text><line x1="0" y1="48" y2="48" x2="51.578125"></line><text x="5" y="63" fill="white" class="classText"></text></g><g id="classid-UserSocial-9" class="classGroup" transform="translate(517.7578125,127.625 )"><rect x="0" y="0" width="58.265625" height="52.5" class=" "></rect><text y="15" x="0"><tspan class="title" x="5">UserSocial</tspan></text><line x1="0" y1="21.5" y2="21.5" x2="58.265625"></line><text x="5" y="31.5" fill="white" class="classText"><tspan x="5">social_id</tspan><tspan x="5" dy="10">user_id</tspan></text><line x1="0" y1="48" y2="48" x2="58.265625"></line><text x="5" y="63" fill="white" class="classText"></text></g><g id="classid-Users-10" class="classGroup" transform="translate(317.22265625,255.125 )"><rect x="0" y="0" width="59.25" height="102.5" class=" "></rect><text y="15" x="0"><tspan class="title" x="16.9140625">Users</tspan></text><line x1="0" y1="21.5" y2="21.5" x2="59.25"></line><text x="5" y="31.5" fill="white" class="classText"><tspan x="5">biography</tspan><tspan x="5" dy="10">email</tspan><tspan x="5" dy="10">fullName</tspan><tspan x="5" dy="10">password</tspan><tspan x="5" dy="10">status_id</tspan><tspan x="5" dy="10">userId</tspan><tspan x="5" dy="10">userName</tspan></text><line x1="0" y1="98" y2="98" x2="59.25"></line><text x="5" y="113" fill="white" class="classText"></text></g><path d="M28.640625,195.125L28.640625,200.95833333333334C28.640625,206.79166666666666,28.640625,218.45833333333334,76.73763020833333,235.81685714636453C124.83463541666667,253.1753809593957,221.02864583333334,276.2257619187914,269.1256510416667,287.75095239848923L317.22265625,299.2761428781871" id="edge0" class="relation" marker-end="url(#extensionEnd)"></path><g class="classLabel"><rect class="box" x="139.796875" y="248.609375" width="32.234375" height="16.515625"></rect><text class="label" x="155.9134113262159" y="260.62259748944564" fill="red" text-anchor="middle">userId</text></g><path d="M237.83849897540983,205.125L238.38494706284155,209.29166666666666C238.93139515027323,213.45833333333334,240.0242913251366,221.79166666666666,238.96527146302938,234.28645833333334C237.90625160092213,246.78125,234.69531570184427,263.4375,233.08984775230533,271.765625L231.4843798027664,280.09375" id="edge1" class="relation" marker-end="url(#extensionEnd)"></path><g class="classLabel"><rect class="box" x="212.59375" y="230.71875" width="52.1875" height="16.5625"></rect><text class="label" x="238.68718811300639" y="242.73025857935573" fill="red" text-anchor="middle">categoryId</text></g><path d="M196.765625,182.58341717686346L187.28450520833334,190.50701431405287C177.80338541666666,198.4306114512423,158.84114583333334,214.27780572562116,178.91731770833334,233.09069648604273C198.99348958333334,251.90358724646435,258.1080729166667,273.6821744929287,287.6653645833333,284.5714681161609L317.22265625,295.46076173939304" id="edge2" class="relation" marker-end="url(#extensionEnd)"></path><g class="classLabel"><rect class="box" x="177.65625" y="237.96875" width="32.21875" height="16.515625"></rect><text class="label" x="193.76770046228518" y="249.97833804589703" fill="red" text-anchor="middle">userId</text></g><path d="M228.82767775578563,52.625L229.2092627131547,56.791666666666664C229.59084767052377,60.958333333333336,230.3540175852619,69.29166666666667,230.73560254263091,77.625C231.1171875,85.95833333333333,231.1171875,94.29166666666667,231.1171875,98.45833333333333L231.1171875,102.625" id="edge3" class="relation" marker-end="url(#extensionEnd)"></path><g class="classLabel"><rect class="box" x="214.953125" y="65.5625" width="32.3125" height="16.5625"></rect><text class="label" x="231.11241697567013" y="77.5729088881154" fill="red" text-anchor="middle">postId</text></g><path d="M202.60546875,38.60572067203773L190.00846354166666,45.10893389336477C177.41145833333334,51.61214711469182,152.21744791666666,64.61857355734591,139.62044270833334,79.44470344533961C127.0234375,94.27083333333333,127.0234375,110.91666666666667,127.0234375,119.23958333333333L127.0234375,127.5625" id="edge4" class="relation" marker-end="url(#extensionEnd)"></path><g class="classLabel"><rect class="box" x="128.828125" y="57.5625" width="27.609375" height="16.5625"></rect><text class="label" x="142.62780669610083" y="69.56923290391117" fill="red" text-anchor="middle">tagId</text></g><path d="M419.13831967213116,180.125L424.61005806010934,188.45833333333334C430.08179644808746,196.79166666666666,441.02527322404376,213.45833333333334,447.04474043715845,230.125C453.0642076502732,246.79166666666666,454.15966530054646,263.4583333333333,454.7073941256831,271.7916666666667L455.25512295081967,280.125" id="edge5" class="relation" marker-end="url(#extensionEnd)"></path><g class="classLabel"><rect class="box" x="433.796875" y="214.0625" width="31.015625" height="16.515625"></rect><text class="label" x="449.3047911182275" y="226.0678511061716" fill="red" text-anchor="middle">roleId</text></g><path d="M384.66636782786884,180.125L379.19462943989066,188.45833333333334C373.72289105191254,196.79166666666666,362.77941427595624,213.45833333333334,357.0350922131147,225.95833333333334C351.2907701502732,238.45833333333334,350.74560280054646,246.79166666666666,350.4730191256831,250.95833333333334L350.20043545081967,255.125" id="edge6" class="relation" marker-end="url(#extensionEnd)"></path><g class="classLabel"><rect class="box" x="345.265625" y="203.59375" width="32.21875" height="16.515625"></rect><text class="label" x="361.3756625123969" y="215.59621539814407" fill="red" text-anchor="middle">userId</text></g><path d="M548.6079021516393,180.125L549.1530695013661,188.45833333333334C549.6982368510929,196.79166666666666,550.7885715505464,213.45833333333334,551.3337389002733,228.45833333333334C551.87890625,243.45833333333334,551.87890625,256.7916666666667,551.87890625,263.4583333333333L551.87890625,270.125" id="edge7" class="relation" marker-end="url(#extensionEnd)"></path><g class="classLabel"><rect class="box" x="532.15625" y="213.078125" width="38.78125" height="16.515625"></rect><text class="label" x="551.5490149550266" y="225.08233901497138" fill="red" text-anchor="middle">socialId</text></g><path d="M530.5475794057377,180.125L525.3593109631147,188.45833333333334C520.1710425204918,196.79166666666666,509.7945056352459,213.45833333333334,484.11535177595624,232.03238773106662C458.4361979166667,250.60644212879993,417.4544270833333,271.0878842575998,396.9635416666667,281.32860532199976L376.47265625,291.5693263863997" id="edge8" class="relation" marker-end="url(#extensionEnd)"></path><g class="classLabel"><rect class="box" x="448.171875" y="235.671875" width="32.234375" height="16.515625"></rect><text class="label" x="464.28802352043044" y="247.68187774287463" fill="red" text-anchor="middle">userId</text></g><path d="M346.84765625,357.625L346.84765625,361.7916666666667C346.84765625,365.9583333333333,346.84765625,374.2916666666667,346.84765625,382.625C346.84765625,390.9583333333333,346.84765625,399.2916666666667,346.84765625,403.4583333333333L346.84765625,407.625" id="edge9" class="relation" marker-end="url(#extensionEnd)"></path><g class="classLabel"><rect class="box" x="326.796875" y="370.625" width="40.109375" height="16.5"></rect><text class="label" x="346.84765625" y="382.625" fill="red" text-anchor="middle">statusId</text></g></svg>